<svg id="Capa_1" enable-background="new 0 0 512 512" height="512" viewBox="0 0 512 512" width="512" xmlns="http://www.w3.org/2000/svg"><path d="m497 401.67h-145.667v-145.667c0-8.284-6.716-15-15-15h-20.333v-17.081c0-24.811-20.183-44.997-44.994-45v-36.514c19.397-4.13 35.92-16.092 46.104-32.409h5.886c35.841 0 65-29.159 65-65v-10c0-8.284-6.716-15-15-15h-45v-4.997c0-8.284-6.716-15-15-15h-113.992c-8.284 0-15 6.716-15 15v4.997h-45c-8.284 0-15 6.716-15 15v10c0 35.841 29.159 65 65 65h5.886c10.186 16.32 26.714 28.284 46.116 32.412v36.511h-.006c-24.814 0-45 20.187-45 45v17.081h-20.333c-8.284 0-15 6.716-15 15v65.333h-145.667c-8.284 0-15 6.716-15 15v160.662c0 8.284 6.716 15 15 15h482c8.284 0 15-6.716 15-15v-80.328c0-8.284-6.716-15-15-15zm-139.36-351.671c-2.219 15.444-14.559 27.659-30.06 29.696.27-2.531.417-5.098.417-7.699v-21.997zm-203.28 0h29.644v21.997c0 2.601.146 5.169.417 7.699-15.501-2.037-27.842-14.252-30.061-29.696zm59.644 21.997v-41.994h83.992v41.994c0 23.157-18.84 41.997-41.996 41.997-23.156-.001-41.996-18.84-41.996-41.997zm11.996 151.926c0-8.271 6.729-15 15-15h30c8.272 0 15 6.729 15 15v17.067h-60zm-196 127.414h130.667v130.662h-130.667zm291.333 130.662h-130.666v-210.995h130.666zm160.667 0h-130.667v-50.328h130.667z"/><path d="m256.159 391.674c8.284 0 15-6.716 15-15v-33.93c0-8.284-6.716-15-15-15s-15 6.716-15 15v33.93c0 8.284 6.716 15 15 15z"/></svg>